<?xml version="1.0" encoding="UTF-8"?>
<svg xmlns="http://www.w3.org/2000/svg" xmlns:xlink="http://www.w3.org/1999/xlink" width="240.75pt" height="141.750002pt" viewBox="0 0 240.75 141.750002" version="1.2">
<defs>
<clipPath id="clip1">
  <path d="M 0.0859375 50.363281 L 40.722656 50.363281 L 40.722656 91 L 0.0859375 91 Z M 0.0859375 50.363281 "/>
</clipPath>
</defs>
<g id="surface1">
<g clip-path="url(#clip1)" clip-rule="nonzero">
<path style=" stroke:none;fill-rule:nonzero;fill:rgb(100%,100%,100%);fill-opacity:1;" d="M 25.5625 50.363281 L 15.371094 50.363281 L 15.371094 65.648438 L 0.0859375 65.648438 L 0.0859375 75.835938 L 15.371094 75.835938 L 15.371094 91.121094 L 25.5625 91.121094 L 25.5625 75.835938 L 40.84375 75.835938 L 40.84375 65.648438 L 25.5625 65.648438 L 25.5625 50.363281 "/>
</g>
<path style=" stroke:none;fill-rule:nonzero;fill:rgb(100%,100%,100%);fill-opacity:1;" d="M 62.085938 58.199219 L 62.085938 62.847656 L 54.070312 62.847656 L 54.070312 67.476562 L 61.746094 67.476562 L 61.746094 72.121094 L 54.070312 72.121094 L 54.070312 76.808594 L 62.085938 76.808594 L 62.085938 81.457031 L 48.773438 81.457031 L 48.773438 58.199219 Z M 62.085938 58.199219 "/>
<path style=" stroke:none;fill-rule:nonzero;fill:rgb(100%,100%,100%);fill-opacity:1;" d="M 66.109375 79.664062 C 64.761719 78.191406 64.085938 76.378906 64.085938 74.238281 C 64.085938 72.09375 64.761719 70.28125 66.109375 68.796875 C 67.464844 67.316406 69.1875 66.574219 71.277344 66.574219 C 73.195312 66.574219 74.769531 67.175781 76.007812 68.375 L 76.007812 66.996094 L 81.003906 66.996094 L 81.003906 81.457031 L 76.066406 81.457031 L 76.066406 79.824219 L 76.007812 79.824219 C 74.769531 81.195312 73.195312 81.878906 71.277344 81.878906 C 69.1875 81.878906 67.464844 81.140625 66.109375 79.664062 Z M 70.355469 71.792969 C 69.707031 72.429688 69.386719 73.246094 69.386719 74.246094 C 69.386719 75.242188 69.695312 76.054688 70.316406 76.679688 C 70.9375 77.308594 71.753906 77.621094 72.769531 77.621094 C 73.746094 77.621094 74.546875 77.304688 75.175781 76.671875 C 75.808594 76.027344 76.125 75.21875 76.125 74.238281 C 76.125 73.242188 75.800781 72.429688 75.15625 71.792969 C 74.507812 71.152344 73.710938 70.832031 72.769531 70.832031 C 71.808594 70.832031 71.003906 71.152344 70.355469 71.792969 Z M 70.355469 71.792969 "/>
<path style=" stroke:none;fill-rule:nonzero;fill:rgb(100%,100%,100%);fill-opacity:1;" d="M 90.679688 66.574219 C 91.503906 66.574219 92.324219 66.667969 93.132812 66.855469 C 93.9375 67.042969 94.539062 67.230469 94.933594 67.414062 L 95.527344 67.695312 L 93.894531 70.972656 C 92.761719 70.371094 91.691406 70.070312 90.679688 70.070312 C 90.109375 70.070312 89.707031 70.128906 89.476562 70.25 C 89.242188 70.371094 89.125 70.601562 89.125 70.941406 C 89.125 71.015625 89.128906 71.089844 89.144531 71.171875 C 89.164062 71.246094 89.199219 71.316406 89.253906 71.382812 C 89.316406 71.441406 89.367188 71.5 89.414062 71.550781 C 89.460938 71.597656 89.539062 71.648438 89.65625 71.703125 C 89.769531 71.757812 89.859375 71.800781 89.925781 71.832031 C 89.992188 71.859375 90.097656 71.902344 90.246094 71.960938 C 90.398438 72.019531 90.511719 72.058594 90.585938 72.082031 C 90.660156 72.109375 90.789062 72.152344 90.96875 72.214844 C 91.148438 72.269531 91.285156 72.304688 91.378906 72.324219 C 91.960938 72.492188 92.464844 72.679688 92.902344 72.882812 C 93.335938 73.09375 93.789062 73.375 94.261719 73.734375 C 94.746094 74.089844 95.113281 74.542969 95.375 75.085938 C 95.640625 75.628906 95.777344 76.25 95.777344 76.949219 C 95.777344 80.234375 93.492188 81.878906 88.925781 81.878906 C 87.886719 81.878906 86.90625 81.722656 85.980469 81.40625 C 85.050781 81.085938 84.378906 80.765625 83.96875 80.445312 L 83.347656 79.9375 L 85.371094 76.519531 C 85.523438 76.65625 85.71875 76.808594 85.960938 76.992188 C 86.207031 77.171875 86.652344 77.417969 87.292969 77.722656 C 87.933594 78.03125 88.488281 78.183594 88.953125 78.183594 C 89.988281 78.183594 90.507812 77.835938 90.507812 77.140625 C 90.507812 76.820312 90.371094 76.574219 90.105469 76.398438 C 89.847656 76.21875 89.398438 76.015625 88.765625 75.789062 C 88.136719 75.5625 87.644531 75.355469 87.292969 75.167969 C 86.390625 74.703125 85.675781 74.171875 85.148438 73.585938 C 84.621094 72.992188 84.359375 72.203125 84.359375 71.222656 C 84.359375 69.757812 84.921875 68.621094 86.058594 67.804688 C 87.203125 66.984375 88.738281 66.574219 90.679688 66.574219 Z M 90.679688 66.574219 "/>
<path style=" stroke:none;fill-rule:nonzero;fill:rgb(100%,100%,100%);fill-opacity:1;" d="M 109.230469 66.996094 L 114.980469 66.996094 L 103.621094 88.789062 L 97.859375 88.789062 L 102.859375 79.203125 L 96.007812 66.996094 L 101.757812 66.996094 L 105.792969 74.40625 Z M 109.230469 66.996094 "/>
<path style=" stroke:none;fill-rule:nonzero;fill:rgb(100%,100%,100%);fill-opacity:1;" d="M 123.808594 81.457031 L 123.808594 57.207031 L 128.796875 57.207031 L 128.796875 68.515625 L 128.855469 68.515625 C 130.152344 67.222656 131.535156 66.574219 133.003906 66.574219 C 133.71875 66.574219 134.425781 66.667969 135.128906 66.855469 C 135.832031 67.042969 136.511719 67.332031 137.160156 67.726562 C 137.804688 68.121094 138.332031 68.683594 138.734375 69.410156 C 139.136719 70.128906 139.34375 70.972656 139.34375 71.933594 L 139.34375 81.457031 L 134.355469 81.457031 L 134.355469 73.285156 C 134.355469 72.53125 134.117188 71.871094 133.632812 71.3125 C 133.152344 70.746094 132.527344 70.460938 131.761719 70.460938 C 131.003906 70.460938 130.320312 70.753906 129.707031 71.339844 C 129.101562 71.921875 128.796875 72.570312 128.796875 73.285156 L 128.796875 81.457031 Z M 123.808594 81.457031 "/>
<path style=" stroke:none;fill-rule:nonzero;fill:rgb(100%,100%,100%);fill-opacity:1;" d="M 143.808594 79.734375 C 142.207031 78.308594 141.40625 76.476562 141.40625 74.238281 C 141.40625 72 142.242188 70.164062 143.910156 68.726562 C 145.585938 67.292969 147.65625 66.574219 150.121094 66.574219 C 152.542969 66.574219 154.585938 67.300781 156.25 68.746094 C 157.914062 70.191406 158.746094 72.023438 158.746094 74.246094 C 158.746094 76.464844 157.929688 78.289062 156.300781 79.726562 C 154.679688 81.164062 152.617188 81.878906 150.121094 81.878906 C 147.519531 81.878906 145.417969 81.164062 143.808594 79.734375 Z M 147.675781 71.792969 C 147.027344 72.429688 146.703125 73.246094 146.703125 74.246094 C 146.703125 75.242188 147.015625 76.054688 147.636719 76.679688 C 148.257812 77.308594 149.074219 77.621094 150.089844 77.621094 C 151.066406 77.621094 151.867188 77.304688 152.496094 76.671875 C 153.128906 76.027344 153.445312 75.21875 153.445312 74.238281 C 153.445312 73.242188 153.121094 72.429688 152.472656 71.792969 C 151.824219 71.152344 151.03125 70.832031 150.089844 70.832031 C 149.128906 70.832031 148.324219 71.152344 147.675781 71.792969 Z M 147.675781 71.792969 "/>
<path style=" stroke:none;fill-rule:nonzero;fill:rgb(100%,100%,100%);fill-opacity:1;" d="M 167.378906 66.574219 C 168.203125 66.574219 169.023438 66.667969 169.832031 66.855469 C 170.636719 67.042969 171.238281 67.230469 171.632812 67.414062 L 172.226562 67.695312 L 170.59375 70.972656 C 169.464844 70.371094 168.390625 70.070312 167.378906 70.070312 C 166.808594 70.070312 166.40625 70.128906 166.175781 70.25 C 165.941406 70.371094 165.824219 70.601562 165.824219 70.941406 C 165.824219 71.015625 165.828125 71.089844 165.84375 71.171875 C 165.863281 71.246094 165.898438 71.316406 165.953125 71.382812 C 166.015625 71.441406 166.066406 71.5 166.113281 71.550781 C 166.160156 71.597656 166.242188 71.648438 166.355469 71.703125 C 166.46875 71.757812 166.558594 71.800781 166.625 71.832031 C 166.691406 71.859375 166.796875 71.902344 166.945312 71.960938 C 167.097656 72.019531 167.210938 72.058594 167.285156 72.082031 C 167.359375 72.109375 167.488281 72.152344 167.667969 72.214844 C 167.847656 72.269531 167.984375 72.304688 168.078125 72.324219 C 168.660156 72.492188 169.164062 72.679688 169.601562 72.882812 C 170.035156 73.09375 170.488281 73.375 170.960938 73.734375 C 171.445312 74.089844 171.8125 74.542969 172.074219 75.085938 C 172.339844 75.628906 172.476562 76.25 172.476562 76.949219 C 172.476562 80.234375 170.191406 81.878906 165.625 81.878906 C 164.585938 81.878906 163.605469 81.722656 162.679688 81.40625 C 161.75 81.085938 161.078125 80.765625 160.667969 80.445312 L 160.046875 79.9375 L 162.070312 76.519531 C 162.222656 76.65625 162.417969 76.808594 162.660156 76.992188 C 162.90625 77.171875 163.351562 77.417969 163.992188 77.722656 C 164.632812 78.03125 165.1875 78.183594 165.652344 78.183594 C 166.6875 78.183594 167.207031 77.835938 167.207031 77.140625 C 167.207031 76.820312 167.070312 76.574219 166.804688 76.398438 C 166.546875 76.21875 166.097656 76.015625 165.464844 75.789062 C 164.835938 75.5625 164.34375 75.355469 163.992188 75.167969 C 163.089844 74.703125 162.375 74.171875 161.847656 73.585938 C 161.320312 72.992188 161.058594 72.203125 161.058594 71.222656 C 161.058594 69.757812 161.621094 68.621094 162.757812 67.804688 C 163.902344 66.984375 165.4375 66.574219 167.378906 66.574219 Z M 167.378906 66.574219 "/>
<path style=" stroke:none;fill-rule:nonzero;fill:rgb(100%,100%,100%);fill-opacity:1;" d="M 189.84375 68.789062 C 191.199219 70.265625 191.878906 72.074219 191.878906 74.214844 C 191.878906 76.355469 191.199219 78.167969 189.84375 79.65625 C 188.496094 81.136719 186.773438 81.878906 184.6875 81.878906 C 182.769531 81.878906 181.191406 81.277344 179.949219 80.074219 L 179.949219 88.789062 L 174.960938 88.789062 L 174.960938 66.996094 L 179.898438 66.996094 L 179.898438 68.628906 L 179.949219 68.628906 C 181.191406 67.261719 182.769531 66.574219 184.6875 66.574219 C 186.773438 66.574219 188.496094 67.3125 189.84375 68.789062 Z M 185.597656 76.671875 C 186.25 76.027344 186.578125 75.214844 186.578125 74.214844 C 186.578125 73.214844 186.269531 72.402344 185.648438 71.773438 C 185.027344 71.144531 184.207031 70.832031 183.195312 70.832031 C 182.21875 70.832031 181.414062 71.152344 180.78125 71.792969 C 180.152344 72.429688 179.839844 73.234375 179.839844 74.214844 C 179.839844 75.214844 180.160156 76.027344 180.808594 76.671875 C 181.457031 77.304688 182.253906 77.621094 183.195312 77.621094 C 184.148438 77.621094 184.949219 77.304688 185.597656 76.671875 Z M 185.597656 76.671875 "/>
<path style=" stroke:none;fill-rule:nonzero;fill:rgb(100%,100%,100%);fill-opacity:1;" d="M 194.691406 58.929688 C 195.277344 58.351562 195.976562 58.058594 196.785156 58.058594 C 197.589844 58.058594 198.285156 58.351562 198.867188 58.929688 C 199.453125 59.511719 199.75 60.207031 199.75 61.015625 C 199.75 61.824219 199.453125 62.523438 198.867188 63.109375 C 198.285156 63.6875 197.589844 63.980469 196.785156 63.980469 C 195.976562 63.980469 195.277344 63.6875 194.691406 63.109375 C 194.109375 62.523438 193.820312 61.824219 193.820312 61.015625 C 193.820312 60.207031 194.109375 59.511719 194.691406 58.929688 Z M 194.21875 66.996094 L 194.21875 81.457031 L 199.207031 81.457031 L 199.207031 66.996094 Z M 194.21875 66.996094 "/>
<path style=" stroke:none;fill-rule:nonzero;fill:rgb(100%,100%,100%);fill-opacity:1;" d="M 203.578125 66.996094 L 203.578125 61.605469 L 208.574219 61.605469 L 208.574219 66.996094 L 211.621094 66.996094 L 211.621094 70.800781 L 208.574219 70.800781 L 208.574219 75.398438 C 208.574219 76.734375 208.949219 77.402344 209.695312 77.402344 C 209.882812 77.402344 210.078125 77.367188 210.289062 77.292969 C 210.492188 77.210938 210.652344 77.136719 210.769531 77.0625 L 210.9375 76.949219 L 212.179688 80.976562 C 211.105469 81.578125 209.882812 81.878906 208.515625 81.878906 C 207.574219 81.878906 206.765625 81.714844 206.089844 81.386719 C 205.414062 81.0625 204.902344 80.621094 204.546875 80.066406 C 204.199219 79.511719 203.949219 78.929688 203.796875 78.324219 C 203.648438 77.710938 203.578125 77.050781 203.578125 76.351562 L 203.578125 70.800781 L 201.492188 70.800781 L 201.492188 66.996094 Z M 203.578125 66.996094 "/>
<path style=" stroke:none;fill-rule:nonzero;fill:rgb(100%,100%,100%);fill-opacity:1;" d="M 214.855469 79.664062 C 213.503906 78.191406 212.832031 76.378906 212.832031 74.238281 C 212.832031 72.09375 213.503906 70.28125 214.855469 68.796875 C 216.210938 67.316406 217.933594 66.574219 220.023438 66.574219 C 221.9375 66.574219 223.515625 67.175781 224.75 68.375 L 224.75 66.996094 L 229.75 66.996094 L 229.75 81.457031 L 224.8125 81.457031 L 224.8125 79.824219 L 224.75 79.824219 C 223.515625 81.195312 221.9375 81.878906 220.023438 81.878906 C 217.933594 81.878906 216.210938 81.140625 214.855469 79.664062 Z M 219.101562 71.792969 C 218.453125 72.429688 218.128906 73.246094 218.128906 74.246094 C 218.128906 75.242188 218.441406 76.054688 219.0625 76.679688 C 219.683594 77.308594 220.5 77.621094 221.515625 77.621094 C 222.488281 77.621094 223.292969 77.304688 223.917969 76.671875 C 224.554688 76.027344 224.871094 75.21875 224.871094 74.238281 C 224.871094 73.242188 224.546875 72.429688 223.898438 71.792969 C 223.25 71.152344 222.457031 70.832031 221.515625 70.832031 C 220.554688 70.832031 219.75 71.152344 219.101562 71.792969 Z M 219.101562 71.792969 "/>
<path style=" stroke:none;fill-rule:nonzero;fill:rgb(100%,100%,100%);fill-opacity:1;" d="M 233.132812 57.207031 L 238.121094 57.207031 L 238.121094 81.457031 L 233.132812 81.457031 Z M 233.132812 57.207031 "/>
</g>
</svg>
