<?xml version="1.0" encoding="UTF-8"?>
<svg xmlns="http://www.w3.org/2000/svg" xmlns:xlink="http://www.w3.org/1999/xlink" width="240.75pt" height="141.750002pt" viewBox="0 0 240.75 141.750002" version="1.2">
<defs>
<clipPath id="clip1">
  <path d="M 0.0859375 50.410156 L 41.144531 50.410156 L 41.144531 91.472656 L 0.0859375 91.472656 Z M 0.0859375 50.410156 "/>
</clipPath>
<clipPath id="clip2">
  <path d="M 235 57 L 240.414062 57 L 240.414062 82 L 235 82 Z M 235 57 "/>
</clipPath>
</defs>
<g id="surface1">
<g clip-path="url(#clip1)" clip-rule="nonzero">
<path style=" stroke:none;fill-rule:nonzero;fill:rgb(100%,8.628845%,8.628845%);fill-opacity:1;" d="M 25.75 50.410156 L 15.484375 50.410156 L 15.484375 65.808594 L 0.0859375 65.808594 L 0.0859375 76.074219 L 15.484375 76.074219 L 15.484375 91.472656 L 25.75 91.472656 L 25.75 76.074219 L 41.144531 76.074219 L 41.144531 65.808594 L 25.75 65.808594 L 25.75 50.410156 "/>
</g>
<path style=" stroke:none;fill-rule:nonzero;fill:rgb(100%,8.628845%,8.628845%);fill-opacity:1;" d="M 62.730469 58.332031 L 62.730469 63.027344 L 54.636719 63.027344 L 54.636719 67.703125 L 62.386719 67.703125 L 62.386719 72.398438 L 54.636719 72.398438 L 54.636719 77.132812 L 62.730469 77.132812 L 62.730469 81.832031 L 49.28125 81.832031 L 49.28125 58.332031 Z M 62.730469 58.332031 "/>
<path style=" stroke:none;fill-rule:nonzero;fill:rgb(100%,8.628845%,8.628845%);fill-opacity:1;" d="M 66.796875 80.019531 C 65.433594 78.527344 64.753906 76.699219 64.753906 74.535156 C 64.753906 72.367188 65.433594 70.535156 66.796875 69.039062 C 68.167969 67.539062 69.90625 66.792969 72.019531 66.792969 C 73.957031 66.792969 75.546875 67.398438 76.796875 68.613281 L 76.796875 67.214844 L 81.847656 67.214844 L 81.847656 81.832031 L 76.859375 81.832031 L 76.859375 80.179688 L 76.796875 80.179688 C 75.546875 81.566406 73.957031 82.253906 72.019531 82.253906 C 69.90625 82.253906 68.167969 81.511719 66.796875 80.019531 Z M 71.089844 72.0625 C 70.433594 72.707031 70.109375 73.53125 70.109375 74.542969 C 70.109375 75.550781 70.421875 76.371094 71.046875 77.003906 C 71.675781 77.636719 72.5 77.953125 73.527344 77.953125 C 74.511719 77.953125 75.320312 77.636719 75.957031 76.992188 C 76.597656 76.34375 76.917969 75.523438 76.917969 74.535156 C 76.917969 73.527344 76.589844 72.707031 75.9375 72.0625 C 75.28125 71.417969 74.480469 71.09375 73.527344 71.09375 C 72.558594 71.09375 71.742188 71.417969 71.089844 72.0625 Z M 71.089844 72.0625 "/>
<path style=" stroke:none;fill-rule:nonzero;fill:rgb(100%,8.628845%,8.628845%);fill-opacity:1;" d="M 91.621094 66.792969 C 92.457031 66.792969 93.285156 66.886719 94.101562 67.074219 C 94.917969 67.265625 95.523438 67.453125 95.921875 67.640625 L 96.519531 67.925781 L 94.871094 71.234375 C 93.730469 70.625 92.648438 70.324219 91.621094 70.324219 C 91.046875 70.324219 90.644531 70.382812 90.40625 70.503906 C 90.167969 70.625 90.054688 70.859375 90.054688 71.203125 C 90.054688 71.28125 90.058594 71.355469 90.074219 71.4375 C 90.09375 71.511719 90.128906 71.582031 90.183594 71.648438 C 90.246094 71.710938 90.300781 71.769531 90.347656 71.820312 C 90.390625 71.867188 90.472656 71.917969 90.589844 71.972656 C 90.703125 72.027344 90.792969 72.070312 90.863281 72.105469 C 90.929688 72.132812 91.039062 72.175781 91.1875 72.234375 C 91.339844 72.292969 91.457031 72.332031 91.53125 72.359375 C 91.605469 72.386719 91.734375 72.429688 91.914062 72.488281 C 92.097656 72.542969 92.234375 72.582031 92.332031 72.601562 C 92.917969 72.769531 93.429688 72.960938 93.867188 73.167969 C 94.304688 73.378906 94.765625 73.664062 95.246094 74.027344 C 95.730469 74.386719 96.105469 74.84375 96.367188 75.394531 C 96.636719 75.941406 96.773438 76.566406 96.773438 77.277344 C 96.773438 80.59375 94.464844 82.253906 89.851562 82.253906 C 88.804688 82.253906 87.8125 82.097656 86.875 81.78125 C 85.9375 81.457031 85.257812 81.132812 84.839844 80.808594 L 84.214844 80.292969 L 86.257812 76.839844 C 86.414062 76.976562 86.613281 77.132812 86.855469 77.316406 C 87.101562 77.5 87.554688 77.746094 88.203125 78.054688 C 88.847656 78.367188 89.410156 78.519531 89.882812 78.519531 C 90.925781 78.519531 91.449219 78.171875 91.449219 77.46875 C 91.449219 77.144531 91.3125 76.898438 91.046875 76.71875 C 90.78125 76.539062 90.328125 76.332031 89.6875 76.101562 C 89.054688 75.875 88.558594 75.664062 88.203125 75.472656 C 87.289062 75.003906 86.566406 74.46875 86.035156 73.875 C 85.5 73.277344 85.234375 72.480469 85.234375 71.488281 C 85.234375 70.007812 85.808594 68.859375 86.957031 68.035156 C 88.109375 67.207031 89.664062 66.792969 91.621094 66.792969 Z M 91.621094 66.792969 "/>
<path style=" stroke:none;fill-rule:nonzero;fill:rgb(100%,8.628845%,8.628845%);fill-opacity:1;" d="M 110.367188 67.214844 L 116.175781 67.214844 L 104.699219 89.238281 L 98.878906 89.238281 L 103.929688 79.554688 L 97.007812 67.214844 L 102.816406 67.214844 L 106.894531 74.707031 Z M 110.367188 67.214844 "/>
<path style=" stroke:none;fill-rule:nonzero;fill:rgb(100%,8.628845%,8.628845%);fill-opacity:1;" d="M 125.097656 81.832031 L 125.097656 57.328125 L 130.136719 57.328125 L 130.136719 68.753906 L 130.199219 68.753906 C 131.507812 67.445312 132.902344 66.792969 134.390625 66.792969 C 135.109375 66.792969 135.828125 66.886719 136.535156 67.074219 C 137.25 67.265625 137.933594 67.558594 138.589844 67.953125 C 139.242188 68.355469 139.773438 68.921875 140.179688 69.65625 C 140.589844 70.382812 140.796875 71.234375 140.796875 72.207031 L 140.796875 81.832031 L 135.753906 81.832031 L 135.753906 73.570312 C 135.753906 72.808594 135.511719 72.144531 135.027344 71.578125 C 134.539062 71.007812 133.910156 70.71875 133.132812 70.71875 C 132.371094 70.71875 131.679688 71.015625 131.058594 71.609375 C 130.445312 72.195312 130.136719 72.851562 130.136719 73.570312 L 130.136719 81.832031 Z M 125.097656 81.832031 "/>
<path style=" stroke:none;fill-rule:nonzero;fill:rgb(100%,8.628845%,8.628845%);fill-opacity:1;" d="M 145.308594 80.089844 C 143.6875 78.648438 142.878906 76.796875 142.878906 74.535156 C 142.878906 72.273438 143.722656 70.417969 145.410156 68.96875 C 147.101562 67.515625 149.195312 66.792969 151.683594 66.792969 C 154.132812 66.792969 156.199219 67.523438 157.878906 68.988281 C 159.558594 70.445312 160.398438 72.296875 160.398438 74.542969 C 160.398438 76.785156 159.574219 78.628906 157.929688 80.078125 C 156.289062 81.53125 154.207031 82.253906 151.683594 82.253906 C 149.058594 82.253906 146.933594 81.535156 145.308594 80.089844 Z M 149.214844 72.0625 C 148.558594 72.707031 148.234375 73.53125 148.234375 74.542969 C 148.234375 75.550781 148.546875 76.371094 149.175781 77.003906 C 149.800781 77.636719 150.625 77.953125 151.652344 77.953125 C 152.636719 77.953125 153.449219 77.636719 154.082031 76.992188 C 154.722656 76.34375 155.042969 75.523438 155.042969 74.535156 C 155.042969 73.527344 154.714844 72.707031 154.0625 72.0625 C 153.40625 71.417969 152.605469 71.09375 151.652344 71.09375 C 150.683594 71.09375 149.867188 71.417969 149.214844 72.0625 Z M 149.214844 72.0625 "/>
<path style=" stroke:none;fill-rule:nonzero;fill:rgb(100%,8.628845%,8.628845%);fill-opacity:1;" d="M 169.121094 66.792969 C 169.957031 66.792969 170.785156 66.886719 171.601562 67.074219 C 172.414062 67.265625 173.023438 67.453125 173.421875 67.640625 L 174.019531 67.925781 L 172.371094 71.234375 C 171.230469 70.625 170.144531 70.324219 169.121094 70.324219 C 168.546875 70.324219 168.140625 70.382812 167.90625 70.503906 C 167.667969 70.625 167.550781 70.859375 167.550781 71.203125 C 167.550781 71.28125 167.558594 71.355469 167.574219 71.4375 C 167.59375 71.511719 167.628906 71.582031 167.683594 71.648438 C 167.746094 71.710938 167.796875 71.769531 167.847656 71.820312 C 167.890625 71.867188 167.972656 71.917969 168.089844 71.972656 C 168.203125 72.027344 168.292969 72.070312 168.363281 72.105469 C 168.425781 72.132812 168.535156 72.175781 168.6875 72.234375 C 168.839844 72.292969 168.953125 72.332031 169.03125 72.359375 C 169.101562 72.386719 169.230469 72.429688 169.414062 72.488281 C 169.597656 72.542969 169.734375 72.582031 169.828125 72.601562 C 170.417969 72.769531 170.925781 72.960938 171.367188 73.167969 C 171.804688 73.378906 172.261719 73.664062 172.742188 74.027344 C 173.230469 74.386719 173.605469 74.84375 173.867188 75.394531 C 174.136719 75.941406 174.273438 76.566406 174.273438 77.277344 C 174.273438 80.59375 171.964844 82.253906 167.351562 82.253906 C 166.300781 82.253906 165.3125 82.097656 164.375 81.78125 C 163.4375 81.457031 162.757812 81.132812 162.339844 80.808594 L 161.710938 80.292969 L 163.757812 76.839844 C 163.910156 76.976562 164.109375 77.132812 164.355469 77.316406 C 164.601562 77.5 165.050781 77.746094 165.699219 78.054688 C 166.347656 78.367188 166.90625 78.519531 167.378906 78.519531 C 168.425781 78.519531 168.949219 78.171875 168.949219 77.46875 C 168.949219 77.144531 168.8125 76.898438 168.542969 76.71875 C 168.28125 76.539062 167.828125 76.332031 167.1875 76.101562 C 166.554688 75.875 166.058594 75.664062 165.699219 75.472656 C 164.789062 75.003906 164.066406 74.46875 163.535156 73.875 C 163 73.277344 162.734375 72.480469 162.734375 71.488281 C 162.734375 70.007812 163.308594 68.859375 164.457031 68.035156 C 165.609375 67.207031 167.164062 66.792969 169.121094 66.792969 Z M 169.121094 66.792969 "/>
<path style=" stroke:none;fill-rule:nonzero;fill:rgb(100%,8.628845%,8.628845%);fill-opacity:1;" d="M 191.824219 69.027344 C 193.191406 70.519531 193.875 72.347656 193.875 74.511719 C 193.875 76.675781 193.191406 78.503906 191.824219 80.007812 C 190.457031 81.507812 188.71875 82.253906 186.609375 82.253906 C 184.671875 82.253906 183.078125 81.648438 181.824219 80.433594 L 181.824219 89.238281 L 176.78125 89.238281 L 176.78125 67.214844 L 181.773438 67.214844 L 181.773438 68.867188 L 181.824219 68.867188 C 183.078125 67.484375 184.671875 66.792969 186.609375 66.792969 C 188.71875 66.792969 190.457031 67.539062 191.824219 69.027344 Z M 187.53125 76.992188 C 188.191406 76.34375 188.523438 75.519531 188.523438 74.511719 C 188.523438 73.5 188.210938 72.679688 187.582031 72.042969 C 186.953125 71.410156 186.128906 71.09375 185.101562 71.09375 C 184.117188 71.09375 183.304688 71.417969 182.664062 72.0625 C 182.027344 72.707031 181.710938 73.519531 181.710938 74.511719 C 181.710938 75.519531 182.039062 76.34375 182.695312 76.992188 C 183.347656 77.636719 184.152344 77.953125 185.101562 77.953125 C 186.066406 77.953125 186.875 77.636719 187.53125 76.992188 Z M 187.53125 76.992188 "/>
<path style=" stroke:none;fill-rule:nonzero;fill:rgb(100%,8.628845%,8.628845%);fill-opacity:1;" d="M 196.71875 59.070312 C 197.3125 58.480469 198.015625 58.1875 198.835938 58.1875 C 199.648438 58.1875 200.351562 58.480469 200.9375 59.070312 C 201.53125 59.65625 201.828125 60.359375 201.828125 61.175781 C 201.828125 61.992188 201.53125 62.699219 200.9375 63.289062 C 200.351562 63.875 199.648438 64.167969 198.835938 64.167969 C 198.015625 64.167969 197.3125 63.875 196.71875 63.289062 C 196.132812 62.699219 195.839844 61.992188 195.839844 61.175781 C 195.839844 60.359375 196.132812 59.65625 196.71875 59.070312 Z M 196.242188 67.214844 L 196.242188 81.832031 L 201.285156 81.832031 L 201.285156 67.214844 Z M 196.242188 67.214844 "/>
<path style=" stroke:none;fill-rule:nonzero;fill:rgb(100%,8.628845%,8.628845%);fill-opacity:1;" d="M 205.699219 67.214844 L 205.699219 61.769531 L 210.75 61.769531 L 210.75 67.214844 L 213.824219 67.214844 L 213.824219 71.0625 L 210.75 71.0625 L 210.75 75.707031 C 210.75 77.058594 211.125 77.730469 211.882812 77.730469 C 212.070312 77.730469 212.269531 77.695312 212.480469 77.621094 C 212.6875 77.539062 212.847656 77.464844 212.964844 77.386719 L 213.136719 77.277344 L 214.390625 81.34375 C 213.304688 81.953125 212.070312 82.253906 210.6875 82.253906 C 209.738281 82.253906 208.917969 82.089844 208.238281 81.757812 C 207.554688 81.429688 207.035156 80.984375 206.679688 80.421875 C 206.328125 79.863281 206.074219 79.277344 205.921875 78.664062 C 205.773438 78.042969 205.699219 77.378906 205.699219 76.667969 L 205.699219 71.0625 L 203.59375 71.0625 L 203.59375 67.214844 Z M 205.699219 67.214844 "/>
<path style=" stroke:none;fill-rule:nonzero;fill:rgb(100%,8.628845%,8.628845%);fill-opacity:1;" d="M 217.09375 80.019531 C 215.730469 78.527344 215.050781 76.699219 215.050781 74.535156 C 215.050781 72.367188 215.730469 70.535156 217.09375 69.039062 C 218.460938 67.539062 220.203125 66.792969 222.316406 66.792969 C 224.25 66.792969 225.84375 67.398438 227.09375 68.613281 L 227.09375 67.214844 L 232.144531 67.214844 L 232.144531 81.832031 L 227.152344 81.832031 L 227.152344 80.179688 L 227.09375 80.179688 C 225.84375 81.566406 224.25 82.253906 222.316406 82.253906 C 220.203125 82.253906 218.460938 81.511719 217.09375 80.019531 Z M 221.386719 72.0625 C 220.730469 72.707031 220.402344 73.53125 220.402344 74.542969 C 220.402344 75.550781 220.71875 76.371094 221.34375 77.003906 C 221.972656 77.636719 222.796875 77.953125 223.824219 77.953125 C 224.808594 77.953125 225.617188 77.636719 226.253906 76.992188 C 226.894531 76.34375 227.214844 75.523438 227.214844 74.535156 C 227.214844 73.527344 226.886719 72.707031 226.234375 72.0625 C 225.578125 71.417969 224.777344 71.09375 223.824219 71.09375 C 222.851562 71.09375 222.039062 71.417969 221.386719 72.0625 Z M 221.386719 72.0625 "/>
<g clip-path="url(#clip2)" clip-rule="nonzero">
<path style=" stroke:none;fill-rule:nonzero;fill:rgb(100%,8.628845%,8.628845%);fill-opacity:1;" d="M 235.5625 57.328125 L 240.601562 57.328125 L 240.601562 81.832031 L 235.5625 81.832031 Z M 235.5625 57.328125 "/>
</g>
</g>
</svg>
